#!OML:ASF H:\ColoradoDance\Project 1\Capture day 1\Session 8\male.ASF
:FULLY-SPECIFIED
:DEGREES
154
upperback 3.769600 -4.638840 0.919346
rfoot 31.420200 16.386999
lradius 31.767401
lthumb 8.155950 734.875977
rradius 37.956299
lwrist 15.372700
rhand -26.833200 9.377100
rhumerus -406.747986 -55.900600 379.278992
lowerneck -6.896810 -2.470990 1.129970
lhand -18.118500 345.053009
ltibia 29.970900
head 3.734330 -1.681770 -0.226574
rwrist 162.181000
lfingers 7.125020
rtoes 42.786301
lowerback 9.231890 -3.399060 -0.532610
rfingers 7.125020
lclavicle -0.000000 0.000000
upperneck 7.759760 -3.495620 0.485852
rfemur -92.961098 -20.614700 40.363899
thorax -1.133900 -2.370400 1.706770
rclavicle -0.000000 0.000000
rtibia 17.893200
lfoot -205.895004 173.813995
lhumerus 0.280714 406.545013 -346.171997
rthumb -0.259015 -380.601990
root 6.444490 19.070200 -4.780650 -343.729004 -72.716797 -22.145100
ltoes -7.779460
lfemur 2.790260 16.774300 344.647003
155
upperback 2.648430 -3.099900 -0.052828
rfoot 30.578100 -4.206640
lradius 33.196499
lthumb 6.269470 735.354004
rradius 33.801899
lwrist 16.549700
rhand -19.218901 14.128000
rhumerus -412.812012 -62.255100 390.832001
lowerneck -5.641160 -2.537830 0.270378
lhand -20.072901 345.467010
ltibia 37.556301
head 2.349060 -1.694180 0.279001
rwrist 169.203995
lfingers 7.125020
rtoes -11.240000
lowerback 7.083820 -2.149460 -2.828140
rfingers 7.125020
lclavicle 0.000000 -0.000000
upperneck 4.302290 -3.495110 1.437590
rfemur -70.369698 -19.575800 30.365000
thorax -1.086410 -1.582450 1.771140
rclavicle 0.000000 -0.000000
rtibia 26.697800
lfoot -210.546997 172.238007
lhumerus 0.471558 405.394012 -347.205994
rthumb 7.093860 -375.733002
root 4.835970 18.473000 -4.760150 -355.076996 -75.460197 -8.132170
ltoes -12.674600
lfemur 2.765720 17.718500 342.303986
156
upperback 0.626894 -3.385340 1.030570
rfoot 18.781200 0.325555
lradius 31.420900
lthumb 3.122560 736.333984
rradius 31.899500
lwrist 18.489401
rhand -11.572200 23.235500
rhumerus -415.700989 -65.086700 396.860992
lowerneck -4.283290 -3.039070 0.439202
lhand -23.331900 346.377014
ltibia 27.579000
head 1.595820 -2.031680 -0.249343
rwrist 172.651001
lfingers 7.125020
rtoes -36.905998
lowerback 3.086160 -2.530310 -0.552278
rfingers 7.125020
lclavicle -0.000000 0.000000
upperneck 2.868010 -4.072350 -0.219470
rfemur -54.050098 -19.030300 29.221500
thorax -0.990313 -1.692900 1.493730
rclavicle -0.000000 0.000000
rtibia 34.484600
lfoot -205.639999 164.266998
lhumerus 0.563587 405.308990 -346.511993
rthumb 14.469200 -366.239990
root 1.746450 18.311199 -4.828040 -347.299988 -72.601501 -11.598200
ltoes -17.907600
lfemur 12.436500 13.913500 349.365997
157
upperback -2.524450 -2.276720 0.370400
rfoot 7.880770 -5.552990
lradius 26.734100
lthumb 3.441350 739.484009
rradius 29.957199
lwrist 12.401400
rhand -19.269300 25.481701
rhumerus -414.644012 -68.858498 398.638000
lowerneck -7.229500 -2.306140 0.722361
lhand -23.001801 349.532013
ltibia 35.134899
head 3.701790 -1.563770 -0.930350
rwrist 178.744995
lfingers 7.125020
rtoes -41.781502
lowerback 0.141054 -1.701350 0.334977
rfingers 7.125020
lclavicle -0.000000 0.000000
upperneck 7.566840 -3.015580 -1.931460
rfemur -38.796200 -10.307100 27.708300
thorax -2.665770 -1.148140 0.248909
rclavicle -0.000000 0.000000
rtibia 36.743301
lfoot -170.005005 169.979996
lhumerus 1.684080 406.528015 -347.390991
rthumb 7.045190 -364.381012
root -2.589730 19.262100 -4.899200 -347.725006 -75.413002 -7.881630
ltoes -4.636410
lfemur 10.103400 13.323100 351.915009
158
upperback -2.650960 -1.952250 -0.965728
rfoot -10.120500 -18.994600
lradius 27.101801
lthumb 7.200990 734.773010
rradius 33.205502
lwrist 14.574700
rhand -19.642300 14.328200
rhumerus -385.993011 -64.618103 370.635986
lowerneck -5.436680 -1.990010 1.694390
lhand -19.107901 344.915985
ltibia 41.282398
head 2.881270 -1.371320 -1.499990
rwrist 184.082993
lfingers 7.125020
rtoes -15.196200
lowerback -0.684844 -1.423250 -0.644222
rfingers 7.125020
lclavicle 0.000000 -0.000000
upperneck 6.245470 -2.582990 -3.385070
rfemur -34.077202 -3.397080 23.135401
thorax -2.346310 -0.985938 -0.601998
rclavicle 0.000000 -0.000000
rtibia 46.913399
lfoot -197.026001 162.639999
lhumerus 0.511880 406.265991 -348.174988
rthumb 6.685170 -375.545990
root -5.316670 19.531099 -4.665530 -362.803986 -79.852501 7.406620
ltoes -0.836467
lfemur -17.412100 31.630501 343.250000
159
upperback -2.186250 -1.524400 -0.841948
rfoot -13.979100 -17.920099
lradius 26.527100
lthumb 7.357120 733.867981
rradius 33.496201
lwrist 12.813900
rhand -21.358000 12.485100
rhumerus -384.384003 -63.068100 369.446014
lowerneck -4.928140 -0.920086 2.433300
lhand -18.946199 344.015991
ltibia 46.103500
head 3.084400 -0.664970 -1.497480
rwrist 185.149994
lfingers 7.125020
rtoes -13.630000
lowerback -1.193650 -1.117880 -1.188380
rfingers 7.125020
lclavicle 0.000000 0.000000
upperneck 7.009440 -1.214450 -3.128170
rfemur -27.111099 0.559614 22.976601
thorax -1.562690 -0.761452 -0.193637
rclavicle 0.000000 0.000000
rtibia 46.931801
lfoot -179.026001 161.080002
lhumerus 1.597800 407.001007 -347.798004
rthumb 5.028690 -377.434998
root -6.763020 19.707100 -4.297400 -365.806000 -85.098900 8.840530
ltoes -4.313280
lfemur -24.912901 37.345001 339.796997
160
upperback -2.148140 -0.502417 1.424650
rfoot -14.932400 -7.619200
lradius 27.323099
lthumb 9.597980 734.822998
rradius 29.794001
lwrist 14.936200
rhand -21.378401 18.088301
rhumerus -397.510010 -70.215202 387.023010
lowerneck -5.434760 1.005980 4.862610
lhand -16.624201 345.061005
ltibia 45.403400
head 2.867790 0.565901 -2.378760
rwrist 186.078003
lfingers 7.125020
rtoes -31.525700
lowerback -1.456900 -0.352269 2.434890
rfingers 7.125020
lclavicle -0.000000 0.000000
upperneck 5.672740 1.257510 -4.781840
rfemur -24.456699 -4.468020 24.502100
thorax -1.392800 -0.290670 0.095048
rclavicle -0.000000 0.000000
rtibia 47.065800
lfoot -184.001007 161.371002
lhumerus 1.332250 407.928009 -350.109009
rthumb 5.009000 -371.832001
root -7.262430 19.734900 -3.592210 -234.177994 -85.198799 -121.797997
ltoes -12.382300
lfemur -21.474899 34.837502 345.200012
